%TF.GenerationSoftware,KiCad,Pcbnew,(6.0.5)*%
%TF.CreationDate,2024-01-20T18:21:03+02:00*%
%TF.ProjectId,robot_pocketbeagle,726f626f-745f-4706-9f63-6b6574626561,rev?*%
%TF.SameCoordinates,PX60e4b00PY791ddc0*%
%TF.FileFunction,Soldermask,Bot*%
%TF.FilePolarity,Negative*%
%FSLAX46Y46*%
G04 Gerber Fmt 4.6, Leading zero omitted, Abs format (unit mm)*
G04 Created by KiCad (PCBNEW (6.0.5)) date 2024-01-20 18:21:03*
%MOMM*%
%LPD*%
G01*
G04 APERTURE LIST*
G04 Aperture macros list*
%AMRoundRect*
0 Rectangle with rounded corners*
0 $1 Rounding radius*
0 $2 $3 $4 $5 $6 $7 $8 $9 X,Y pos of 4 corners*
0 Add a 4 corners polygon primitive as box body*
4,1,4,$2,$3,$4,$5,$6,$7,$8,$9,$2,$3,0*
0 Add four circle primitives for the rounded corners*
1,1,$1+$1,$2,$3*
1,1,$1+$1,$4,$5*
1,1,$1+$1,$6,$7*
1,1,$1+$1,$8,$9*
0 Add four rect primitives between the rounded corners*
20,1,$1+$1,$2,$3,$4,$5,0*
20,1,$1+$1,$4,$5,$6,$7,0*
20,1,$1+$1,$6,$7,$8,$9,0*
20,1,$1+$1,$8,$9,$2,$3,0*%
G04 Aperture macros list end*
%ADD10R,1.600000X1.600000*%
%ADD11O,1.600000X1.600000*%
%ADD12R,1.700000X1.700000*%
%ADD13O,1.700000X1.700000*%
%ADD14C,5.600000*%
%ADD15C,3.600000*%
%ADD16R,1.524000X1.524000*%
%ADD17C,1.524000*%
%ADD18C,3.500000*%
%ADD19R,3.000000X3.000000*%
%ADD20C,3.000000*%
%ADD21R,1.800000X1.800000*%
%ADD22C,1.800000*%
%ADD23R,2.000000X2.000000*%
%ADD24C,2.000000*%
%ADD25RoundRect,0.250000X0.312500X0.625000X-0.312500X0.625000X-0.312500X-0.625000X0.312500X-0.625000X0*%
%ADD26RoundRect,0.250000X0.450000X-0.262500X0.450000X0.262500X-0.450000X0.262500X-0.450000X-0.262500X0*%
%ADD27RoundRect,0.250000X-0.625000X0.312500X-0.625000X-0.312500X0.625000X-0.312500X0.625000X0.312500X0*%
%ADD28RoundRect,0.250000X0.262500X0.450000X-0.262500X0.450000X-0.262500X-0.450000X0.262500X-0.450000X0*%
%ADD29RoundRect,0.250000X-0.262500X-0.450000X0.262500X-0.450000X0.262500X0.450000X-0.262500X0.450000X0*%
%ADD30RoundRect,0.250000X-0.450000X0.262500X-0.450000X-0.262500X0.450000X-0.262500X0.450000X0.262500X0*%
%ADD31RoundRect,0.250000X-0.475000X0.250000X-0.475000X-0.250000X0.475000X-0.250000X0.475000X0.250000X0*%
%ADD32R,1.200000X2.200000*%
%ADD33R,5.800000X6.400000*%
%ADD34RoundRect,0.250000X0.625000X-0.312500X0.625000X0.312500X-0.625000X0.312500X-0.625000X-0.312500X0*%
%ADD35RoundRect,0.250000X0.475000X-0.250000X0.475000X0.250000X-0.475000X0.250000X-0.475000X-0.250000X0*%
%ADD36RoundRect,0.150000X0.825000X0.150000X-0.825000X0.150000X-0.825000X-0.150000X0.825000X-0.150000X0*%
%ADD37R,2.200000X1.200000*%
%ADD38R,6.400000X5.800000*%
%ADD39RoundRect,0.150000X-0.150000X0.587500X-0.150000X-0.587500X0.150000X-0.587500X0.150000X0.587500X0*%
%ADD40RoundRect,0.150000X0.150000X-0.725000X0.150000X0.725000X-0.150000X0.725000X-0.150000X-0.725000X0*%
%ADD41RoundRect,0.150000X-0.587500X-0.150000X0.587500X-0.150000X0.587500X0.150000X-0.587500X0.150000X0*%
G04 APERTURE END LIST*
D10*
%TO.C,U2*%
X16256000Y35560000D03*
D11*
X18796000Y35560000D03*
X18796000Y43180000D03*
X16256000Y43180000D03*
%TD*%
D12*
%TO.C,J18*%
X45065000Y6370000D03*
D13*
X45065000Y3830000D03*
%TD*%
D14*
%TO.C,H4*%
X5080000Y5080000D03*
D15*
X5080000Y5080000D03*
%TD*%
D12*
%TO.C,J17*%
X71755000Y32385000D03*
D13*
X71755000Y29845000D03*
X71755000Y27305000D03*
X71755000Y24765000D03*
X71755000Y22225000D03*
X71755000Y19685000D03*
X71755000Y17145000D03*
X71755000Y14605000D03*
X71755000Y12065000D03*
%TD*%
D12*
%TO.C,J31*%
X30490000Y95107200D03*
D13*
X33030000Y95107200D03*
X35570000Y95107200D03*
X38110000Y95107200D03*
%TD*%
D12*
%TO.C,J8*%
X4445000Y78740000D03*
D13*
X4445000Y76200000D03*
X4445000Y73660000D03*
X4445000Y71120000D03*
%TD*%
D12*
%TO.C,J5*%
X9535000Y59055000D03*
D13*
X12075000Y59055000D03*
X14615000Y59055000D03*
X17155000Y59055000D03*
X19695000Y59055000D03*
X22235000Y59055000D03*
X24775000Y59055000D03*
X27315000Y59055000D03*
%TD*%
D16*
%TO.C,J2*%
X52380000Y12870000D03*
D17*
X54880000Y12870000D03*
X56880000Y12870000D03*
X59380000Y12870000D03*
D18*
X62450000Y10160000D03*
X49310000Y10160000D03*
%TD*%
D15*
%TO.C,H2*%
X69850000Y95250000D03*
D14*
X69850000Y95250000D03*
%TD*%
D15*
%TO.C,H1*%
X69850000Y5080000D03*
D14*
X69850000Y5080000D03*
%TD*%
D19*
%TO.C,J13*%
X10795000Y3800000D03*
D20*
X15875000Y3800000D03*
%TD*%
D12*
%TO.C,J29*%
X71755000Y67945000D03*
D13*
X71755000Y70485000D03*
X71755000Y73025000D03*
X71755000Y75565000D03*
X71755000Y78105000D03*
X71755000Y80645000D03*
%TD*%
D12*
%TO.C,J10*%
X5994400Y46228000D03*
D13*
X5994400Y43688000D03*
X5994400Y41148000D03*
X5994400Y38608000D03*
%TD*%
D12*
%TO.C,J1*%
X24790000Y88235000D03*
D13*
X24790000Y85695000D03*
X24790000Y83155000D03*
X24790000Y80615000D03*
X24790000Y78075000D03*
%TD*%
D21*
%TO.C,D1*%
X4445000Y61595000D03*
D22*
X4445000Y59055000D03*
%TD*%
D12*
%TO.C,J21*%
X71780000Y62865000D03*
D13*
X71780000Y60325000D03*
X71780000Y57785000D03*
X71780000Y55245000D03*
X71780000Y52705000D03*
%TD*%
D12*
%TO.C,J3*%
X63500000Y95057200D03*
D13*
X60960000Y95057200D03*
X58420000Y95057200D03*
%TD*%
D12*
%TO.C,J15*%
X44450000Y95057200D03*
D13*
X46990000Y95057200D03*
X49530000Y95057200D03*
X52070000Y95057200D03*
%TD*%
D12*
%TO.C,J14*%
X24130000Y95057200D03*
D13*
X21590000Y95057200D03*
X19050000Y95057200D03*
X16510000Y95057200D03*
X13970000Y95057200D03*
X11430000Y95057200D03*
%TD*%
D12*
%TO.C,J7*%
X40010000Y41290000D03*
D13*
X37470000Y41290000D03*
X40010000Y43830000D03*
X37470000Y43830000D03*
X40010000Y46370000D03*
X37470000Y46370000D03*
X40010000Y48910000D03*
X37470000Y48910000D03*
X40010000Y51450000D03*
X37470000Y51450000D03*
X40010000Y53990000D03*
X37470000Y53990000D03*
X40010000Y56530000D03*
X37470000Y56530000D03*
X40010000Y59070000D03*
X37470000Y59070000D03*
X40010000Y61610000D03*
X37470000Y61610000D03*
X40010000Y64150000D03*
X37470000Y64150000D03*
X40010000Y66690000D03*
X37470000Y66690000D03*
X40010000Y69230000D03*
X37470000Y69230000D03*
X40010000Y71770000D03*
X37470000Y71770000D03*
X40010000Y74310000D03*
X37470000Y74310000D03*
X40010000Y76850000D03*
X37470000Y76850000D03*
X40010000Y79390000D03*
X37470000Y79390000D03*
X40010000Y81930000D03*
X37470000Y81930000D03*
X40010000Y84470000D03*
X37470000Y84470000D03*
%TD*%
D10*
%TO.C,U1*%
X16256000Y47000000D03*
D11*
X18796000Y47000000D03*
X18796000Y54620000D03*
X16256000Y54620000D03*
%TD*%
D12*
%TO.C,J4*%
X65410000Y41290000D03*
D13*
X62870000Y41290000D03*
X65410000Y43830000D03*
X62870000Y43830000D03*
X65410000Y46370000D03*
X62870000Y46370000D03*
X65410000Y48910000D03*
X62870000Y48910000D03*
X65410000Y51450000D03*
X62870000Y51450000D03*
X65410000Y53990000D03*
X62870000Y53990000D03*
X65410000Y56530000D03*
X62870000Y56530000D03*
X65410000Y59070000D03*
X62870000Y59070000D03*
X65410000Y61610000D03*
X62870000Y61610000D03*
X65410000Y64150000D03*
X62870000Y64150000D03*
X65410000Y66690000D03*
X62870000Y66690000D03*
X65410000Y69230000D03*
X62870000Y69230000D03*
X65410000Y71770000D03*
X62870000Y71770000D03*
X65410000Y74310000D03*
X62870000Y74310000D03*
X65410000Y76850000D03*
X62870000Y76850000D03*
X65410000Y79390000D03*
X62870000Y79390000D03*
X65410000Y81930000D03*
X62870000Y81930000D03*
X65410000Y84470000D03*
X62870000Y84470000D03*
%TD*%
D12*
%TO.C,J19*%
X30500000Y53880000D03*
D13*
X30500000Y51340000D03*
X30500000Y48800000D03*
%TD*%
D12*
%TO.C,J20*%
X30500000Y43700000D03*
D13*
X30500000Y41160000D03*
X30500000Y38620000D03*
%TD*%
D23*
%TO.C,BZ1*%
X51054000Y84318000D03*
D24*
X51054000Y76718000D03*
%TD*%
D12*
%TO.C,J12*%
X25400000Y53850300D03*
D13*
X25400000Y51310300D03*
X25400000Y48770300D03*
X25400000Y46230300D03*
X25400000Y43690300D03*
X25400000Y41150300D03*
X25400000Y38610300D03*
X25400000Y36070300D03*
%TD*%
D15*
%TO.C,H3*%
X5080000Y95250000D03*
D14*
X5080000Y95250000D03*
%TD*%
D12*
%TO.C,J30*%
X71780000Y47625000D03*
D13*
X71780000Y45085000D03*
X71780000Y42545000D03*
X71780000Y40005000D03*
X71780000Y37465000D03*
%TD*%
D19*
%TO.C,J16*%
X35290000Y3800000D03*
D20*
X40370000Y3800000D03*
%TD*%
D12*
%TO.C,J6*%
X62331600Y30886400D03*
D13*
X59791600Y30886400D03*
X57251600Y30886400D03*
X54711600Y30886400D03*
X52171600Y30886400D03*
X49631600Y30886400D03*
X47091600Y30886400D03*
X44551600Y30886400D03*
X42011600Y30886400D03*
X39471600Y30886400D03*
%TD*%
D12*
%TO.C,J9*%
X10135000Y53850300D03*
D13*
X10135000Y51310300D03*
X10135000Y48770300D03*
X10135000Y46230300D03*
X10135000Y43690300D03*
X10135000Y41150300D03*
X10135000Y38610300D03*
X10135000Y36070300D03*
%TD*%
D25*
%TO.C,R35*%
X15494000Y91440000D03*
X12569000Y91440000D03*
%TD*%
D26*
%TO.C,R7*%
X63930000Y20555000D03*
X63930000Y22380000D03*
%TD*%
D27*
%TO.C,R53*%
X34550000Y9530000D03*
X34550000Y6605000D03*
%TD*%
D28*
%TO.C,R24*%
X42545000Y21312500D03*
X40720000Y21312500D03*
%TD*%
D29*
%TO.C,R3*%
X42672000Y79502000D03*
X44497000Y79502000D03*
%TD*%
D30*
%TO.C,R16*%
X30850000Y33252500D03*
X30850000Y31427500D03*
%TD*%
D31*
%TO.C,C3*%
X39920000Y9880000D03*
X39920000Y7980000D03*
%TD*%
D28*
%TO.C,R21*%
X29875000Y16475000D03*
X28050000Y16475000D03*
%TD*%
D32*
%TO.C,Q3*%
X13455000Y12853000D03*
D33*
X11175000Y19153000D03*
D32*
X8895000Y12853000D03*
%TD*%
D34*
%TO.C,R40*%
X58450000Y4875000D03*
X58450000Y7800000D03*
%TD*%
D30*
%TO.C,R13*%
X51562000Y25701000D03*
X51562000Y23876000D03*
%TD*%
D26*
%TO.C,R57*%
X18580000Y31410000D03*
X18580000Y33235000D03*
%TD*%
D32*
%TO.C,Q6*%
X21655000Y11900000D03*
D33*
X19375000Y18200000D03*
D32*
X17095000Y11900000D03*
%TD*%
D35*
%TO.C,C5*%
X19715000Y2290000D03*
X19715000Y4190000D03*
%TD*%
D31*
%TO.C,C6*%
X19715000Y7790000D03*
X19715000Y5890000D03*
%TD*%
D30*
%TO.C,R9*%
X42545000Y25677500D03*
X42545000Y23852500D03*
%TD*%
D26*
%TO.C,R42*%
X4540000Y20005000D03*
X4540000Y21830000D03*
%TD*%
D30*
%TO.C,R8*%
X42545000Y18772500D03*
X42545000Y16947500D03*
%TD*%
D28*
%TO.C,R38*%
X47921200Y61595000D03*
X46096200Y61595000D03*
%TD*%
D26*
%TO.C,R6*%
X65660000Y23920000D03*
X65660000Y25745000D03*
%TD*%
%TO.C,R43*%
X5550000Y12285000D03*
X5550000Y14110000D03*
%TD*%
D27*
%TO.C,R37*%
X21450000Y42825000D03*
X21450000Y39900000D03*
%TD*%
D30*
%TO.C,R10*%
X47040800Y18796000D03*
X47040800Y16971000D03*
%TD*%
%TO.C,R22*%
X56235600Y27783800D03*
X56235600Y25958800D03*
%TD*%
D28*
%TO.C,R19*%
X55268500Y84328000D03*
X53443500Y84328000D03*
%TD*%
D31*
%TO.C,C4*%
X37780000Y9910000D03*
X37780000Y8010000D03*
%TD*%
D29*
%TO.C,R20*%
X46532800Y81945000D03*
X48357800Y81945000D03*
%TD*%
D26*
%TO.C,R41*%
X6350000Y54610000D03*
X6350000Y56435000D03*
%TD*%
D30*
%TO.C,R12*%
X51562000Y18796000D03*
X51562000Y16971000D03*
%TD*%
D36*
%TO.C,U3*%
X26286000Y30485000D03*
X26286000Y29215000D03*
X26286000Y27945000D03*
X26286000Y26675000D03*
X26286000Y25405000D03*
X26286000Y24135000D03*
X26286000Y22865000D03*
X21336000Y22865000D03*
X21336000Y24135000D03*
X21336000Y25405000D03*
X21336000Y26675000D03*
X21336000Y27945000D03*
X21336000Y29215000D03*
X21336000Y30485000D03*
%TD*%
D35*
%TO.C,C1*%
X21336000Y32258000D03*
X21336000Y34158000D03*
%TD*%
D30*
%TO.C,R14*%
X37640000Y13460000D03*
X37640000Y11635000D03*
%TD*%
%TO.C,R15*%
X37640000Y19525000D03*
X37640000Y17700000D03*
%TD*%
D34*
%TO.C,R36*%
X21450000Y54200000D03*
X21450000Y57125000D03*
%TD*%
D37*
%TO.C,U5*%
X22775000Y2745000D03*
D38*
X29075000Y5025000D03*
D37*
X22775000Y7305000D03*
%TD*%
D26*
%TO.C,R31*%
X36340000Y28510000D03*
X36340000Y30335000D03*
%TD*%
%TO.C,R1*%
X13700000Y47000000D03*
X13700000Y48825000D03*
%TD*%
D28*
%TO.C,R39*%
X47921200Y56515000D03*
X46096200Y56515000D03*
%TD*%
D30*
%TO.C,R11*%
X47040800Y25701000D03*
X47040800Y23876000D03*
%TD*%
D29*
%TO.C,R30*%
X34547500Y26530000D03*
X36372500Y26530000D03*
%TD*%
D27*
%TO.C,R54*%
X34570000Y13805000D03*
X34570000Y10880000D03*
%TD*%
D29*
%TO.C,R47*%
X10750000Y30500000D03*
X12575000Y30500000D03*
%TD*%
D30*
%TO.C,R52*%
X13675000Y43175000D03*
X13675000Y41350000D03*
%TD*%
D28*
%TO.C,R48*%
X16250000Y52100000D03*
X14425000Y52100000D03*
%TD*%
D30*
%TO.C,R44*%
X24070000Y20475000D03*
X24070000Y18650000D03*
%TD*%
%TO.C,R2*%
X13700000Y37385000D03*
X13700000Y35560000D03*
%TD*%
D28*
%TO.C,R17*%
X36875000Y33310000D03*
X35050000Y33310000D03*
%TD*%
D26*
%TO.C,R4*%
X13700000Y54625000D03*
X13700000Y56450000D03*
%TD*%
%TO.C,R46*%
X19375000Y10650000D03*
X19375000Y12475000D03*
%TD*%
D28*
%TO.C,R18*%
X33565000Y16480000D03*
X31740000Y16480000D03*
%TD*%
D39*
%TO.C,Q4*%
X24075000Y16300000D03*
X25975000Y16300000D03*
X25025000Y14425000D03*
%TD*%
D30*
%TO.C,R51*%
X28660000Y33265000D03*
X28660000Y31440000D03*
%TD*%
D31*
%TO.C,C2*%
X36860000Y24120000D03*
X36860000Y22220000D03*
%TD*%
D37*
%TO.C,Q7*%
X11385000Y32745000D03*
D38*
X5085000Y30465000D03*
D37*
X11385000Y28185000D03*
%TD*%
D29*
%TO.C,R56*%
X26015000Y18650000D03*
X27840000Y18650000D03*
%TD*%
D28*
%TO.C,R26*%
X37640000Y15560000D03*
X35815000Y15560000D03*
%TD*%
D34*
%TO.C,R50*%
X28400000Y11012500D03*
X28400000Y13937500D03*
%TD*%
D39*
%TO.C,Q2*%
X4580000Y18010000D03*
X6480000Y18010000D03*
X5530000Y16135000D03*
%TD*%
D28*
%TO.C,R45*%
X15842500Y28225000D03*
X14017500Y28225000D03*
%TD*%
D27*
%TO.C,R32*%
X53848000Y72521000D03*
X53848000Y69596000D03*
%TD*%
D28*
%TO.C,R49*%
X29110000Y20850000D03*
X27285000Y20850000D03*
%TD*%
%TO.C,R25*%
X47040800Y21336000D03*
X45215800Y21336000D03*
%TD*%
D40*
%TO.C,U4*%
X34570000Y18960000D03*
X33300000Y18960000D03*
X32030000Y18960000D03*
X30760000Y18960000D03*
X30760000Y24110000D03*
X32030000Y24110000D03*
X33300000Y24110000D03*
X34570000Y24110000D03*
%TD*%
D41*
%TO.C,Q5*%
X14550000Y31350000D03*
X14550000Y33250000D03*
X16425000Y32300000D03*
%TD*%
D29*
%TO.C,R23*%
X54410600Y23418800D03*
X56235600Y23418800D03*
%TD*%
D27*
%TO.C,R33*%
X56134000Y7812500D03*
X56134000Y4887500D03*
%TD*%
D29*
%TO.C,R5*%
X16587500Y39900000D03*
X18412500Y39900000D03*
%TD*%
D28*
%TO.C,R28*%
X51562000Y21336000D03*
X49737000Y21336000D03*
%TD*%
D30*
%TO.C,R27*%
X33060000Y33265000D03*
X33060000Y31440000D03*
%TD*%
D26*
%TO.C,R55*%
X6470000Y20005000D03*
X6470000Y21830000D03*
%TD*%
%TO.C,R29*%
X56235600Y19053800D03*
X56235600Y20878800D03*
%TD*%
D39*
%TO.C,Q1*%
X46457800Y79502000D03*
X48357800Y79502000D03*
X47407800Y77627000D03*
%TD*%
D25*
%TO.C,R34*%
X23052500Y91440000D03*
X20127500Y91440000D03*
%TD*%
M02*
