M48
; DRILL file {KiCad (6.0.5)} date Sat Jan 20 18:21:20 2024
; FORMAT={-:-/ absolute / metric / decimal}
; #@! TF.CreationDate,2024-01-20T18:21:20+02:00
; #@! TF.GenerationSoftware,Kicad,Pcbnew,(6.0.5)
; #@! TF.FileFunction,MixedPlating,1,2
FMAT,2
METRIC
; #@! TA.AperFunction,Plated,PTH,ComponentDrill
T1C0.800
; #@! TA.AperFunction,Plated,PTH,ComponentDrill
T2C0.900
; #@! TA.AperFunction,Plated,PTH,ComponentDrill
T3C0.920
; #@! TA.AperFunction,Plated,PTH,ViaDrill
T4C1.000
; #@! TA.AperFunction,Plated,PTH,ComponentDrill
T5C1.000
; #@! TA.AperFunction,Plated,PTH,ComponentDrill
T6C1.520
; #@! TA.AperFunction,Plated,PTH,ComponentDrill
T7C2.300
; #@! TA.AperFunction,Plated,PTH,ComponentDrill
T8C3.200
%
G90
G05
T1
X16.256Y54.62
X16.256Y47.0
X16.256Y43.18
X16.256Y35.56
X18.796Y54.62
X18.796Y47.0
X18.796Y43.18
X18.796Y35.56
T2
X4.445Y61.595
X4.445Y59.055
T3
X52.38Y12.87
X54.88Y12.87
X56.88Y12.87
X59.38Y12.87
T4
X6.39Y35.34
X6.985Y73.66
X6.985Y71.12
X9.18Y9.18
X11.13Y12.09
X11.17Y9.15
X13.335Y73.66
X13.56Y9.1
X18.415Y71.12
X22.69Y5.04
X30.63Y29.52
X30.78Y27.07
X41.6Y14.547
X44.6Y12.675
X45.025Y74.25
X47.42Y40.183
X47.921Y64.135
X47.921Y59.055
X47.94Y69.24
X57.39Y40.183
X58.42Y20.955
X59.055Y76.835
X59.055Y67.945
X59.436Y61.595
X68.58Y64.135
T5
X4.445Y78.74
X4.445Y76.2
X4.445Y73.66
X4.445Y71.12
X5.994Y46.228
X5.994Y43.688
X5.994Y41.148
X5.994Y38.608
X9.535Y59.055
X10.135Y53.85
X10.135Y51.31
X10.135Y48.77
X10.135Y46.23
X10.135Y43.69
X10.135Y41.15
X10.135Y38.61
X10.135Y36.07
X11.43Y95.057
X12.075Y59.055
X13.97Y95.057
X14.615Y59.055
X16.51Y95.057
X17.155Y59.055
X19.05Y95.057
X19.695Y59.055
X21.59Y95.057
X22.235Y59.055
X24.13Y95.057
X24.775Y59.055
X24.79Y88.235
X24.79Y85.695
X24.79Y83.155
X24.79Y80.615
X24.79Y78.075
X25.4Y53.85
X25.4Y51.31
X25.4Y48.77
X25.4Y46.23
X25.4Y43.69
X25.4Y41.15
X25.4Y38.61
X25.4Y36.07
X27.315Y59.055
X30.49Y95.107
X30.5Y53.88
X30.5Y51.34
X30.5Y48.8
X30.5Y43.7
X30.5Y41.16
X30.5Y38.62
X33.03Y95.107
X35.57Y95.107
X37.47Y84.47
X37.47Y81.93
X37.47Y79.39
X37.47Y76.85
X37.47Y74.31
X37.47Y71.77
X37.47Y69.23
X37.47Y66.69
X37.47Y64.15
X37.47Y61.61
X37.47Y59.07
X37.47Y56.53
X37.47Y53.99
X37.47Y51.45
X37.47Y48.91
X37.47Y46.37
X37.47Y43.83
X37.47Y41.29
X38.11Y95.107
X39.472Y30.886
X40.01Y84.47
X40.01Y81.93
X40.01Y79.39
X40.01Y76.85
X40.01Y74.31
X40.01Y71.77
X40.01Y69.23
X40.01Y66.69
X40.01Y64.15
X40.01Y61.61
X40.01Y59.07
X40.01Y56.53
X40.01Y53.99
X40.01Y51.45
X40.01Y48.91
X40.01Y46.37
X40.01Y43.83
X40.01Y41.29
X42.012Y30.886
X44.45Y95.057
X44.552Y30.886
X45.065Y6.37
X45.065Y3.83
X46.99Y95.057
X47.092Y30.886
X49.53Y95.057
X49.632Y30.886
X51.054Y84.318
X51.054Y76.718
X52.07Y95.057
X52.172Y30.886
X54.712Y30.886
X57.252Y30.886
X58.42Y95.057
X59.792Y30.886
X60.96Y95.057
X62.332Y30.886
X62.87Y84.47
X62.87Y81.93
X62.87Y79.39
X62.87Y76.85
X62.87Y74.31
X62.87Y71.77
X62.87Y69.23
X62.87Y66.69
X62.87Y64.15
X62.87Y61.61
X62.87Y59.07
X62.87Y56.53
X62.87Y53.99
X62.87Y51.45
X62.87Y48.91
X62.87Y46.37
X62.87Y43.83
X62.87Y41.29
X63.5Y95.057
X65.41Y84.47
X65.41Y81.93
X65.41Y79.39
X65.41Y76.85
X65.41Y74.31
X65.41Y71.77
X65.41Y69.23
X65.41Y66.69
X65.41Y64.15
X65.41Y61.61
X65.41Y59.07
X65.41Y56.53
X65.41Y53.99
X65.41Y51.45
X65.41Y48.91
X65.41Y46.37
X65.41Y43.83
X65.41Y41.29
X71.755Y80.645
X71.755Y78.105
X71.755Y75.565
X71.755Y73.025
X71.755Y70.485
X71.755Y67.945
X71.755Y32.385
X71.755Y29.845
X71.755Y27.305
X71.755Y24.765
X71.755Y22.225
X71.755Y19.685
X71.755Y17.145
X71.755Y14.605
X71.755Y12.065
X71.78Y62.865
X71.78Y60.325
X71.78Y57.785
X71.78Y55.245
X71.78Y52.705
X71.78Y47.625
X71.78Y45.085
X71.78Y42.545
X71.78Y40.005
X71.78Y37.465
T6
X10.795Y3.8
X15.875Y3.8
X35.29Y3.8
X40.37Y3.8
T7
X49.31Y10.16
X62.45Y10.16
T8
X5.08Y95.25
X5.08Y5.08
X69.85Y95.25
X69.85Y5.08
T0
M30
